<?xml version="1.0" encoding="UTF-8"?>
<svg id="Layer_2" data-name="Layer 2" xmlns="http://www.w3.org/2000/svg" viewBox="0 0 149.96 145.63">
  <defs>
    <style>
      .cls-1 { fill: #94212e; }
      .cls-2 { fill: #010101; }
    </style>
  </defs>
  <g id="icons">
    <g>
      <path class="cls-2" d="M122.69,145.63H27.27c-2.08,0-3.77-1.69-3.77-3.77v-76.58h7.53v72.82h87.88v-50.22h7.53v53.98c0,2.08-1.69,3.77-3.77,3.77Z"/>
      <rect class="cls-2" x="136.21" y="53.61" width="7.53" height="19.77" transform="translate(1.22 129.6) rotate(-49.88)"/>
      <path class="cls-2" d="M4.85,72.74l-4.85-5.76L72.58,5.85c1.4-1.18,3.45-1.18,4.85,0l8.51,7.17-4.86,5.76-6.08-5.13L4.85,72.74Z"/>
      <path class="cls-2" d="M31.04,47.71h-7.53V3.77c0-2.08,1.69-3.77,3.77-3.77h17.58c2.08,0,3.77,1.69,3.77,3.77v16.32h-7.53V7.53h-10.04v40.17Z"/>
      <rect class="cls-2" x="58.66" y="120.52" width="32.64" height="7.53"/>
      <path class="cls-2" d="M97.58,110.48h-45.2c-2.08,0-3.77-1.69-3.77-3.77v-42.69c0-2.08,1.69-3.77,3.77-3.77h13.81v7.53h-10.04v35.15h37.66v-15.07h7.53v18.83c0,2.08-1.69,3.77-3.77,3.77Z"/>
      <rect class="cls-2" x="71.31" y="87.88" width="7.53" height="17.58" transform="translate(-1.13 .89) rotate(-.67)"/>
      <path class="cls-1" d="M103.52,80.98c-10.94,0-19.3-3.53-24.87-10.49-11.42-14.28-6.31-37.69-6.09-38.67.24-1.05.91-1.95,1.85-2.47.94-.52,2.06-.61,3.07-.26.25.09,2.5.89,5.48,2.6,1-2.29,2.53-5.1,4.86-8.2,7.95-10.6,23.67-18.93,24.33-19.28,1.17-.61,2.57-.57,3.7.11,1.13.68,1.82,1.9,1.82,3.22.02,11.55,2.07,23.56,4.34,26.13,1.51-1.18,4.23-4.62,6.25-7.97.79-1.31,2.29-2.03,3.82-1.78,1.52.24,2.73,1.37,3.08,2.87.26,1.12,6.25,27.71-6.18,43.34-5.73,7.21-14.29,10.87-25.44,10.87ZM79.18,38.2c-.77,6.83-1.1,19.53,5.37,27.6,4.06,5.07,10.45,7.64,18.97,7.64s15.26-2.62,19.55-8.02c6.25-7.86,6.63-19.9,5.99-28.09-3.14,3.35-6.02,4.68-8.63,3.96-7.48-2.07-9.58-16.8-10.12-27.28-4.96,3.13-12.19,8.29-16.46,13.98-2.52,3.36-3.85,6.21-4.54,8.13,4.13,3.54,8.17,8.56,9.89,15.37l-7.3,1.85c-1.99-7.85-8.38-12.69-12.71-15.14Z"/>
    </g>
  </g>
</svg>
